<?xml version="1.0" encoding="UTF-8"?>
<svg xmlns="http://www.w3.org/2000/svg" xmlns:xlink="http://www.w3.org/1999/xlink" width="321pt" height="305pt" viewBox="0 0 321 305" version="1.1">
<g id="surface13345">
<path style="fill:none;stroke-width:0.4;stroke-linecap:butt;stroke-linejoin:round;stroke:rgb(0%,0%,0%);stroke-opacity:1;stroke-miterlimit:10;" d="M 128 608 L 96 608 L 128 640 L 96 672 L 64 640 L 64 704 L 128 704 L 160 672 L 160 704 L 176 704 L 176 752 L 192 752 L 192 672 L 256 736 L 288 704 L 320 704 L 320 640 L 384 640 L 384 608 L 336 608 L 336 512 L 384 512 L 384 480 L 272 480 L 272 512 L 176 512 L 176 448 L 160 464 L 144 464 L 128 448 L 64 512 L 96 544 L 64 576 L 80 592 L 112 560 L 128 576 L 128 608 " transform="matrix(1,0,0,-1,-63,753)"/>
<path style="fill:none;stroke-width:0.4;stroke-linecap:butt;stroke-linejoin:round;stroke:rgb(0%,0%,0%);stroke-opacity:1;stroke-miterlimit:10;" d="M 176 624 L 176 592 L 192 592 L 192 560 L 176 544 L 240 544 L 256 560 L 288 560 L 288 640 L 256 672 L 224 672 L 176 624 " transform="matrix(1,0,0,-1,-63,753)"/>
</g>
</svg>
