<?xml version="1.0" encoding="UTF-8"?>
<svg xmlns="http://www.w3.org/2000/svg" xmlns:xlink="http://www.w3.org/1999/xlink" width="321pt" height="113pt" viewBox="0 0 321 113" version="1.1">
<g id="surface5927">
<path style="fill:none;stroke-width:0.4;stroke-linecap:butt;stroke-linejoin:round;stroke:rgb(0%,0%,0%);stroke-opacity:1;stroke-miterlimit:10;" d="M 192 640 L 224 640 L 224 672 L 256 672 L 288 640 L 320 672 L 416 672 L 416 640 L 480 640 L 480 656 L 496 656 L 512 640 " transform="matrix(1,0,0,-1,-191,673)"/>
<path style="fill:none;stroke-width:0.4;stroke-linecap:butt;stroke-linejoin:round;stroke:rgb(0%,0%,0%);stroke-opacity:1;stroke-miterlimit:10;" d="M 192 592 L 208 608 L 240 608 L 272 576 L 288 592 L 368 592 L 400 560 L 448 560 L 448 592 L 496 592 L 512 576 " transform="matrix(1,0,0,-1,-191,673)"/>
</g>
</svg>
