<?xml version="1.0" encoding="UTF-8"?>
<svg xmlns="http://www.w3.org/2000/svg" xmlns:xlink="http://www.w3.org/1999/xlink" width="321pt" height="321pt" viewBox="0 0 321 321" version="1.1">
<g id="surface11238">
<path style="fill:none;stroke-width:0.4;stroke-linecap:butt;stroke-linejoin:round;stroke:rgb(0%,0%,0%);stroke-opacity:1;stroke-miterlimit:10;" d="M 272 640 L 304 640 L 304 608 L 336 608 L 336 656 L 240 656 L 240 576 L 384 576 L 384 704 L 192 704 L 192 512 L 384 512 L 384 544 L 224 544 L 224 672 L 352 672 L 352 592 L 288 592 L 288 608 L 272 624 L 272 640 " transform="matrix(1,0,0,-1,-127,769)"/>
<path style="fill:none;stroke-width:0.4;stroke-linecap:butt;stroke-linejoin:round;stroke:rgb(0%,0%,0%);stroke-opacity:1;stroke-miterlimit:10;" d="M 128 768 L 448 768 L 448 448 L 128 448 L 128 768 " transform="matrix(1,0,0,-1,-127,769)"/>
</g>
</svg>
