<?xml version="1.0" encoding="UTF-8"?>
<svg xmlns="http://www.w3.org/2000/svg" xmlns:xlink="http://www.w3.org/1999/xlink" width="225pt" height="241pt" viewBox="0 0 225 241" version="1.1">
<g id="surface4295">
<path style="fill:none;stroke-width:0.4;stroke-linecap:butt;stroke-linejoin:round;stroke:rgb(0%,0%,0%);stroke-opacity:1;stroke-miterlimit:10;" d="M 288 608 L 288 576 L 320 576 L 320 640 L 256 640 L 224 608 L 240 592 L 240 512 L 256 512 L 256 592 L 240 608 L 256 624 L 304 624 L 288 608 " transform="matrix(1,0,0,-1,-127,705)"/>
<path style="fill:none;stroke-width:0.4;stroke-linecap:butt;stroke-linejoin:round;stroke:rgb(0%,0%,0%);stroke-opacity:1;stroke-miterlimit:10;" d="M 288 672 L 256 704 L 256 672 L 224 672 L 192 704 L 192 640 L 128 576 L 160 544 L 192 576 L 208 560 L 160 512 L 144 528 L 128 512 L 176 464 L 208 496 L 224 480 L 272 528 L 272 560 L 352 560 L 352 672 L 288 672 " transform="matrix(1,0,0,-1,-127,705)"/>
</g>
</svg>
