<?xml version="1.0" encoding="UTF-8"?>
<svg xmlns="http://www.w3.org/2000/svg" xmlns:xlink="http://www.w3.org/1999/xlink" width="481pt" height="321pt" viewBox="0 0 481 321" version="1.1">
<g id="surface19761">
<path style="fill:none;stroke-width:0.4;stroke-linecap:butt;stroke-linejoin:round;stroke:rgb(0%,0%,0%);stroke-opacity:1;stroke-miterlimit:10;" d="M 64 576 L 96 576 L 96 640 L 128 640 L 128 544 L 160 576 L 160 608 L 224 544 L 224 608 L 256 608 L 256 576 L 320 640 L 320 608 L 384 608 L 384 544 L 448 480 L 512 480 L 512 512 L 544 544 L 544 448 " transform="matrix(1,0,0,-1,-63,641)"/>
<path style="fill:none;stroke-width:0.4;stroke-linecap:butt;stroke-linejoin:round;stroke:rgb(0%,0%,0%);stroke-opacity:1;stroke-miterlimit:10;" d="M 64 448 L 96 480 L 96 384 L 160 448 L 192 448 L 192 416 L 176 416 L 176 384 L 240 448 L 384 448 L 320 384 L 320 352 L 352 384 L 416 384 L 416 352 L 448 320 L 480 352 L 512 320 " transform="matrix(1,0,0,-1,-63,641)"/>
</g>
</svg>
