<?xml version="1.0" encoding="UTF-8"?>
<svg xmlns="http://www.w3.org/2000/svg" xmlns:xlink="http://www.w3.org/1999/xlink" width="225pt" height="193pt" viewBox="0 0 225 193" version="1.1">
<g id="surface63840">
<path style="fill:none;stroke-width:0.4;stroke-linecap:butt;stroke-linejoin:round;stroke:rgb(0%,0%,0%);stroke-opacity:1;stroke-miterlimit:10;" d="M 192 704 L 160 704 L 160 672 L 144 656 L 176 624 L 192 640 L 208 624 L 208 608 L 256 608 L 256 640 L 272 656 L 272 688 L 240 688 L 224 704 L 224 720 L 192 720 L 192 704 " transform="matrix(1,0,0,-1,-95,753)"/>
<path style="fill:none;stroke-width:0.4;stroke-linecap:butt;stroke-linejoin:round;stroke:rgb(0%,0%,0%);stroke-opacity:1;stroke-miterlimit:10;" d="M 144 720 L 128 736 L 96 704 L 96 672 L 112 672 L 112 640 L 96 624 L 128 592 L 144 592 L 176 560 L 224 560 L 240 576 L 288 576 L 320 608 L 320 656 L 304 672 L 320 688 L 320 720 L 304 736 L 256 736 L 240 752 L 192 752 L 160 720 L 144 720 " transform="matrix(1,0,0,-1,-95,753)"/>
</g>
</svg>
