<?xml version="1.0" encoding="UTF-8"?>
<svg xmlns="http://www.w3.org/2000/svg" xmlns:xlink="http://www.w3.org/1999/xlink" width="465pt" height="353pt" viewBox="0 0 465 353" version="1.1">
<g id="surface645819">
<path style="fill:none;stroke-width:0.4;stroke-linecap:butt;stroke-linejoin:round;stroke:rgb(0%,0%,0%);stroke-opacity:1;stroke-miterlimit:10;" d="M 64 384 L 528 384 L 528 736 L 64 736 L 64 384 " transform="matrix(1,0,0,-1,-63,737)"/>
<path style="fill:none;stroke-width:0.4;stroke-linecap:butt;stroke-linejoin:round;stroke:rgb(0%,0%,0%);stroke-opacity:1;stroke-miterlimit:10;" d="M 128 464 L 112 480 L 144 512 L 144 520 L 168 544 L 168 552 L 156 564 L 168 576 L 168 612 L 148 632 L 148 636 L 164 636 L 192 664 L 204 664 L 224 644 L 244 664 L 232 676 L 232 688 L 272 688 L 280 696 L 288 688 L 288 668 L 304 668 L 316 680 L 364 680 L 372 688 L 388 688 L 404 672 L 404 652 L 428 628 L 428 584 L 460 552 L 460 536 L 428 504 L 428 468 L 424 464 L 408 480 L 408 492 L 372 492 L 332 452 L 316 452 L 272 496 L 232 496 L 200 464 L 160 504 L 128 472 L 128 464 " transform="matrix(1,0,0,-1,-63,737)"/>
</g>
</svg>
