<?xml version="1.0" encoding="UTF-8"?>
<svg xmlns="http://www.w3.org/2000/svg" xmlns:xlink="http://www.w3.org/1999/xlink" width="513pt" height="385pt" viewBox="0 0 513 385" version="1.1">
<g id="surface584862">
<path style="fill:none;stroke-width:0.4;stroke-linecap:butt;stroke-linejoin:round;stroke:rgb(0%,0%,0%);stroke-opacity:1;stroke-miterlimit:10;" d="M 80 496 L 80 544 L 48 576 L 48 592 L 80 592 L 128 640 L 144 640 L 176 608 L 192 624 L 176 640 L 176 672 L 240 672 L 256 688 L 272 672 L 272 640 L 288 640 L 304 656 L 368 656 L 384 672 L 416 672 L 448 640 L 448 608 L 480 576 L 480 512 L 528 464 L 528 432 L 480 384 L 480 336 L 464 320 L 432 352 L 432 368 L 400 368 L 336 304 L 304 304 L 240 368 L 208 368 L 144 304 L 64 384 L 32 352 L 16 368 L 48 400 L 48 416 L 80 448 L 80 464 L 64 480 L 80 496 " transform="matrix(1,0,0,-1,-15,689)"/>
<path style="fill:none;stroke-width:0.4;stroke-linecap:butt;stroke-linejoin:round;stroke:rgb(0%,0%,0%);stroke-opacity:1;stroke-miterlimit:10;" d="M 224 512 L 224 480 L 256 480 L 256 512 L 224 512 " transform="matrix(1,0,0,-1,-15,689)"/>
</g>
</svg>
