<?xml version="1.0" encoding="UTF-8"?>
<svg xmlns="http://www.w3.org/2000/svg" xmlns:xlink="http://www.w3.org/1999/xlink" width="593pt" height="489pt" viewBox="0 0 593 489" version="1.1">
<g id="surface710065">
<path style="fill:none;stroke-width:0.4;stroke-linecap:butt;stroke-linejoin:round;stroke:rgb(0%,0%,0%);stroke-opacity:1;stroke-miterlimit:10;" d="M 128 464 L 112 480 L 144 512 L 144 520 L 168 544 L 168 552 L 156 564 L 168 576 L 168 612 L 148 632 L 148 636 L 164 636 L 192 664 L 204 664 L 224 644 L 244 664 L 232 676 L 232 688 L 272 688 L 280 696 L 288 688 L 288 668 L 304 668 L 316 680 L 364 680 L 372 688 L 388 688 L 404 672 L 404 652 L 428 628 L 428 584 L 460 552 L 460 536 L 428 504 L 428 468 L 424 464 L 408 480 L 408 492 L 372 492 L 332 452 L 316 452 L 272 496 L 232 496 L 200 464 L 160 504 L 128 472 L 128 464 " transform="matrix(1,0,0,-1,1,773)"/>
<path style="fill:none;stroke-width:0.4;stroke-linecap:butt;stroke-linejoin:round;stroke:rgb(0%,0%,0%);stroke-opacity:1;stroke-miterlimit:10;" d="M 152 712 L 128 736 L 116 736 L 108 744 L 124 760 L 144 740 L 172 740 L 180 732 L 196 748 L 208 736 L 228 756 L 228 764 L 236 772 L 264 772 L 264 752 L 284 732 L 308 732 L 296 720 L 312 704 L 332 724 L 332 736 L 372 736 L 380 744 L 408 744 L 416 736 L 460 736 L 460 724 L 468 716 L 476 724 L 488 712 L 476 700 L 504 700 L 504 672 L 488 656 L 488 640 L 536 640 L 552 656 L 576 632 L 576 608 L 568 600 L 552 600 L 540 612 L 540 572 L 556 556 L 548 548 L 548 536 L 560 524 L 568 524 L 576 532 L 584 532 L 592 524 L 592 492 L 580 480 L 560 480 L 560 472 L 564 468 L 556 460 L 556 432 L 564 424 L 556 424 L 556 376 L 544 364 L 544 368 L 536 376 L 508 376 L 504 380 L 496 380 L 488 372 L 476 384 L 452 384 L 452 416 L 436 416 L 424 428 L 404 428 L 404 408 L 400 408 L 392 400 L 368 400 L 360 408 L 316 408 L 304 396 L 232 396 L 224 388 L 184 388 L 176 396 L 176 412 L 124 412 L 116 404 L 128 392 L 128 384 L 104 360 L 104 328 L 64 328 L 48 312 L 48 300 L 32 300 L 16 284 L 0 284 L 0 312 L 8 320 L 20 320 L 20 340 L 32 352 L 32 376 L 24 384 L 24 400 L 20 404 L 24 404 L 24 420 L 36 432 L 36 544 L 44 552 L 56 540 L 84 540 L 84 572 L 80 576 L 96 592 L 96 624 L 56 664 L 56 704 L 64 712 L 76 700 L 152 700 L 152 712 " transform="matrix(1,0,0,-1,1,773)"/>
</g>
</svg>
