<?xml version="1.0" encoding="UTF-8"?>
<svg xmlns="http://www.w3.org/2000/svg" xmlns:xlink="http://www.w3.org/1999/xlink" width="528pt" height="385pt" viewBox="0 0 528 385" version="1.1">
<g id="surface26551">
<path style="fill:none;stroke-width:0.4;stroke-linecap:butt;stroke-linejoin:round;stroke:rgb(0%,0%,0%);stroke-opacity:1;stroke-miterlimit:10;" d="M 64.402344 543.8125 L 64.402344 591.792969 L 32.414063 623.78125 L 32.414063 639.777344 L 64.402344 639.777344 L 112.382813 687.757813 L 128.375 687.757813 L 160.363281 655.769531 L 176.359375 671.765625 L 160.363281 687.757813 L 160.363281 719.746094 L 224.339844 719.746094 L 240.335938 735.738281 L 256.328125 719.746094 L 256.328125 687.757813 L 272.320313 687.757813 L 288.316406 703.75 L 352.292969 703.75 L 368.285156 719.746094 L 400.273438 719.746094 L 432.261719 687.757813 L 432.261719 655.769531 L 464.25 623.78125 L 464.25 559.804688 L 512.230469 511.824219 L 512.230469 479.835938 L 464.25 431.855469 L 464.25 383.871094 L 448.253906 367.878906 L 416.269531 399.867188 L 416.269531 415.859375 L 384.28125 415.859375 L 320.304688 351.886719 L 288.316406 351.886719 L 224.339844 415.859375 L 192.351563 415.859375 L 128.375 351.886719 L 48.40625 431.855469 L 16.417969 399.867188 L 0.425781 415.859375 L 32.414063 447.847656 L 32.414063 463.84375 L 64.402344 495.832031 L 64.402344 511.824219 L 48.40625 527.820313 L 64.402344 543.8125 " transform="matrix(1,0,0,-1,0,737)"/>
<path style="fill:none;stroke-width:0.4;stroke-linecap:butt;stroke-linejoin:round;stroke:rgb(0%,0%,0%);stroke-opacity:1;stroke-miterlimit:10;" d="M 64 384 L 528 384 L 528 736 L 64 736 L 64 384 " transform="matrix(1,0,0,-1,0,737)"/>
</g>
</svg>
