<?xml version="1.0" encoding="UTF-8"?>
<svg xmlns="http://www.w3.org/2000/svg" xmlns:xlink="http://www.w3.org/1999/xlink" width="465pt" height="353pt" viewBox="0 0 465 353" version="1.1">
<g id="surface616200">
<path style="fill:none;stroke-width:0.4;stroke-linecap:butt;stroke-linejoin:round;stroke:rgb(0%,0%,0%);stroke-opacity:1;stroke-miterlimit:10;" d="M 218.496094 568.988281 L 218.496094 580.324219 L 210.9375 587.882813 L 210.9375 591.660156 L 218.496094 591.660156 L 229.832031 602.996094 L 233.609375 602.996094 L 241.167969 595.4375 L 244.945313 599.214844 L 241.167969 602.996094 L 241.167969 610.550781 L 256.28125 610.550781 L 260.058594 614.332031 L 263.835938 610.550781 L 263.835938 602.996094 L 267.617188 602.996094 L 271.394531 606.773438 L 286.507813 606.773438 L 290.285156 610.550781 L 297.84375 610.550781 L 305.398438 602.996094 L 305.398438 595.4375 L 312.957031 587.882813 L 312.957031 572.769531 L 324.292969 561.433594 L 324.292969 553.875 L 312.957031 542.539063 L 312.957031 531.207031 L 309.179688 527.425781 L 301.621094 534.984375 L 301.621094 538.761719 L 294.0625 538.761719 L 278.949219 523.648438 L 271.394531 523.648438 L 256.28125 538.761719 L 248.722656 538.761719 L 233.609375 523.648438 L 214.71875 542.539063 L 207.160156 534.984375 L 203.382813 538.761719 L 210.9375 546.320313 L 210.9375 550.097656 L 218.496094 557.652344 L 218.496094 561.433594 L 214.71875 565.210938 L 218.496094 568.988281 " transform="matrix(1,0,0,-1,-63,737)"/>
<path style="fill:none;stroke-width:0.4;stroke-linecap:butt;stroke-linejoin:round;stroke:rgb(0%,0%,0%);stroke-opacity:1;stroke-miterlimit:10;" d="M 64 384 L 528 384 L 528 736 L 64 736 L 64 384 " transform="matrix(1,0,0,-1,-63,737)"/>
</g>
</svg>
